<svg version="1.0" id="katman_1" xmlns="http://www.w3.org/2000/svg" xmlns:xlink="http://www.w3.org/1999/xlink" x="0px" y="0px" style="width: 10px; height: 10px;" viewBox="0 0 200 200">
<style type="text/css">
	.st0{fill:#FFFFFF;}
</style>
<path class="st0" d="M100,0C44.9,0,0,44.9,0,100s44.9,100,100,100s100-44.9,100-100S155.1,0,100,0z"/>
<path d="M37,81.8l-13.2,4.8v5.8l6.9-2.5v29.2h-6.9v5.7h20v-5.7H37V81.8z M82.6,94.8c4-2.4,6.3-6.5,6.3-11.3
	c0-7.3-6.3-13.5-13.8-13.5c-8.4,0-14.8,6-14.8,14.1c0,4.8,2.4,8.9,6.6,11.1c-5.6,2.5-9.3,8.1-9.3,14.3c0,9.2,7.6,16.4,17.3,16.4
	c9.5,0,17.3-7.6,17.3-16.8C92,102.8,88.2,97.2,82.6,94.8z M66.2,84c0-4.7,3.8-8.4,8.4-8.4c4.6,0,8.4,3.8,8.4,8.5
	c0,4.7-3.8,8.4-8.4,8.4C69.9,92.5,66.2,88.7,66.2,84z M74.7,120c-6.1,0-10.9-4.8-10.9-10.9c0-5.9,4.9-10.9,10.8-10.9
	c6,0,10.9,4.9,10.9,10.9S80.6,120,74.7,120z M129.3,86.2c-3.5-3.5-8.3-5.5-13.3-5.5c-5.2,0-10.3,2.3-14,6.3
	c-3.4,3.6-4.8,7.6-4.8,13.5v5.6c0,6.1,1.7,10.5,5.5,14.3c3.6,3.6,8.3,5.5,13.3,5.5c5.2,0,10.3-2.3,14-6.2c3.3-3.6,4.8-7.7,4.8-13.6
	v-5.6C134.8,94.2,133.1,90,129.3,86.2z M128.4,106c0,3.4-0.4,6.1-2.2,8.8c-2.3,3.2-6.2,5.1-10.2,5.1s-7.7-1.8-10-4.9
	c-2.1-2.7-2.5-5.5-2.5-9v-5.5c0-3.3,0.4-6,2.3-8.7c2.2-3.2,6.1-5.2,10.2-5.2c4,0,7.8,1.8,10,4.9c2,2.7,2.4,5.4,2.4,9V106z
	 M171.8,86.2c-3.5-3.5-8.4-5.5-13.3-5.5c-5.2,0-10.3,2.3-14,6.3c-3.4,3.6-4.8,7.6-4.8,13.5v5.6c0,6.1,1.7,10.5,5.5,14.3
	c3.6,3.6,8.4,5.5,13.3,5.5c5.2,0,10.3-2.3,14-6.2c3.3-3.6,4.8-7.7,4.8-13.6v-5.6C177.3,94.2,175.6,90,171.8,86.2z M171,106
	c0,3.4-0.4,6.1-2.2,8.8c-2.3,3.2-6.2,5.1-10.2,5.1s-7.7-1.8-10-4.9c-2.1-2.7-2.5-5.5-2.5-9v-5.5c0-3.3,0.4-6,2.3-8.7
	c2.2-3.2,6.1-5.2,10.2-5.2c4,0,7.8,1.8,10,4.9c2,2.7,2.4,5.4,2.4,9V106z M164.6,63.2c-1.3,0.9-3.2,0.6-4.1-0.7
	c-5-7.3-10.9-13.5-17.9-19c-5.3-4.1-11.7-8-17.7-10.5c-1.5-0.6-2.2-2.4-1.5-3.9c0.6-1.5,2.4-2.2,3.9-1.5c6.4,2.8,13.3,6.9,18.9,11.3
	c7.5,5.9,13.8,12.5,19.1,20.3C166.3,60.5,165.9,62.3,164.6,63.2z"/>
</svg>
